<mxfile host="app.diagrams.net" modified="2021-06-09T10:12:09.201Z" agent="5.0 (X11)" etag="EhzpVfgpCng0lQOipIIC" version="14.7.6" type="github">
  <diagram id="yA-Y0Q_u5IJMEjfKfHKO" name="Page-1">
    <mxGraphModel dx="1673" dy="824" grid="1" gridSize="10" guides="1" tooltips="1" connect="1" arrows="1" fold="1" page="1" pageScale="1" pageWidth="1100" pageHeight="850" math="0" shadow="0">
      <root>
        <mxCell id="0" />
        <mxCell id="1" parent="0" />
        <mxCell id="S0g9-Dens50htp6KJ_Ot-13" style="edgeStyle=orthogonalEdgeStyle;rounded=0;orthogonalLoop=1;jettySize=auto;html=1;exitX=0.5;exitY=1;exitDx=0;exitDy=0;exitPerimeter=0;entryX=0.5;entryY=0;entryDx=0;entryDy=0;" parent="1" source="S0g9-Dens50htp6KJ_Ot-1" target="S0g9-Dens50htp6KJ_Ot-3" edge="1">
          <mxGeometry relative="1" as="geometry" />
        </mxCell>
        <mxCell id="S0g9-Dens50htp6KJ_Ot-17" style="edgeStyle=orthogonalEdgeStyle;rounded=0;orthogonalLoop=1;jettySize=auto;html=1;exitX=0.5;exitY=1;exitDx=0;exitDy=0;exitPerimeter=0;entryX=0.5;entryY=0;entryDx=0;entryDy=0;" parent="1" source="S0g9-Dens50htp6KJ_Ot-1" target="S0g9-Dens50htp6KJ_Ot-16" edge="1">
          <mxGeometry relative="1" as="geometry" />
        </mxCell>
        <mxCell id="S0g9-Dens50htp6KJ_Ot-18" style="edgeStyle=orthogonalEdgeStyle;rounded=0;orthogonalLoop=1;jettySize=auto;html=1;exitX=0.5;exitY=1;exitDx=0;exitDy=0;exitPerimeter=0;entryX=0.5;entryY=0;entryDx=0;entryDy=0;" parent="1" source="S0g9-Dens50htp6KJ_Ot-1" target="S0g9-Dens50htp6KJ_Ot-15" edge="1">
          <mxGeometry relative="1" as="geometry" />
        </mxCell>
        <mxCell id="S0g9-Dens50htp6KJ_Ot-1" value="" style="outlineConnect=0;dashed=0;verticalLabelPosition=bottom;verticalAlign=top;align=center;html=1;shape=mxgraph.aws3.application_load_balancer;fillColor=#F58536;gradientColor=none;" parent="1" vertex="1">
          <mxGeometry x="129.5" y="40" width="69" height="72" as="geometry" />
        </mxCell>
        <mxCell id="S0g9-Dens50htp6KJ_Ot-6" style="edgeStyle=orthogonalEdgeStyle;rounded=0;orthogonalLoop=1;jettySize=auto;html=1;exitX=0.5;exitY=1;exitDx=0;exitDy=0;exitPerimeter=0;entryX=0.5;entryY=0;entryDx=0;entryDy=0;" parent="1" source="S0g9-Dens50htp6KJ_Ot-2" target="S0g9-Dens50htp6KJ_Ot-5" edge="1">
          <mxGeometry relative="1" as="geometry" />
        </mxCell>
        <mxCell id="S0g9-Dens50htp6KJ_Ot-10" style="edgeStyle=orthogonalEdgeStyle;rounded=0;orthogonalLoop=1;jettySize=auto;html=1;exitX=0.5;exitY=1;exitDx=0;exitDy=0;exitPerimeter=0;entryX=0.5;entryY=0;entryDx=0;entryDy=0;" parent="1" source="S0g9-Dens50htp6KJ_Ot-2" target="S0g9-Dens50htp6KJ_Ot-8" edge="1">
          <mxGeometry relative="1" as="geometry" />
        </mxCell>
        <mxCell id="S0g9-Dens50htp6KJ_Ot-11" style="edgeStyle=orthogonalEdgeStyle;rounded=0;orthogonalLoop=1;jettySize=auto;html=1;exitX=0.5;exitY=1;exitDx=0;exitDy=0;exitPerimeter=0;entryX=0.5;entryY=0;entryDx=0;entryDy=0;" parent="1" source="S0g9-Dens50htp6KJ_Ot-2" target="S0g9-Dens50htp6KJ_Ot-9" edge="1">
          <mxGeometry relative="1" as="geometry" />
        </mxCell>
        <mxCell id="S0g9-Dens50htp6KJ_Ot-2" value="" style="outlineConnect=0;dashed=0;verticalLabelPosition=bottom;verticalAlign=top;align=center;html=1;shape=mxgraph.aws3.application_load_balancer;fillColor=#F58536;gradientColor=none;" parent="1" vertex="1">
          <mxGeometry x="770" y="50" width="69" height="72" as="geometry" />
        </mxCell>
        <mxCell id="S0g9-Dens50htp6KJ_Ot-32" style="edgeStyle=orthogonalEdgeStyle;rounded=0;orthogonalLoop=1;jettySize=auto;html=1;exitX=0.5;exitY=1;exitDx=0;exitDy=0;entryX=0.5;entryY=0;entryDx=0;entryDy=0;entryPerimeter=0;" parent="1" source="S0g9-Dens50htp6KJ_Ot-3" target="S0g9-Dens50htp6KJ_Ot-12" edge="1">
          <mxGeometry relative="1" as="geometry" />
        </mxCell>
        <mxCell id="S0g9-Dens50htp6KJ_Ot-3" value="NGINX" style="shape=image;html=1;verticalAlign=top;verticalLabelPosition=bottom;labelBackgroundColor=#ffffff;imageAspect=0;aspect=fixed;image=https://cdn3.iconfinder.com/data/icons/social-media-2169/24/social_media_social_media_logo_docker-128.png" parent="1" vertex="1">
          <mxGeometry x="119" y="180" width="90" height="90" as="geometry" />
        </mxCell>
        <mxCell id="S0g9-Dens50htp6KJ_Ot-34" style="edgeStyle=orthogonalEdgeStyle;rounded=0;orthogonalLoop=1;jettySize=auto;html=1;exitX=0.5;exitY=1;exitDx=0;exitDy=0;entryX=0.5;entryY=0;entryDx=0;entryDy=0;entryPerimeter=0;" parent="1" source="S0g9-Dens50htp6KJ_Ot-4" target="S0g9-Dens50htp6KJ_Ot-7" edge="1">
          <mxGeometry relative="1" as="geometry" />
        </mxCell>
        <mxCell id="S0g9-Dens50htp6KJ_Ot-51" style="edgeStyle=orthogonalEdgeStyle;rounded=0;orthogonalLoop=1;jettySize=auto;html=1;exitX=0.5;exitY=1;exitDx=0;exitDy=0;entryX=0.5;entryY=0;entryDx=0;entryDy=0;entryPerimeter=0;" parent="1" source="S0g9-Dens50htp6KJ_Ot-4" target="S0g9-Dens50htp6KJ_Ot-43" edge="1">
          <mxGeometry relative="1" as="geometry" />
        </mxCell>
        <mxCell id="S0g9-Dens50htp6KJ_Ot-4" value="craftcms/php-fpm:8.0" style="shape=image;html=1;verticalAlign=top;verticalLabelPosition=bottom;labelBackgroundColor=#ffffff;imageAspect=0;aspect=fixed;image=https://cdn3.iconfinder.com/data/icons/social-media-2169/24/social_media_social_media_logo_docker-128.png" parent="1" vertex="1">
          <mxGeometry x="60" y="460" width="90" height="90" as="geometry" />
        </mxCell>
        <mxCell id="S0g9-Dens50htp6KJ_Ot-42" style="edgeStyle=orthogonalEdgeStyle;rounded=0;orthogonalLoop=1;jettySize=auto;html=1;exitX=0.5;exitY=1;exitDx=0;exitDy=0;entryX=0.5;entryY=0;entryDx=0;entryDy=0;entryPerimeter=0;" parent="1" source="S0g9-Dens50htp6KJ_Ot-5" target="S0g9-Dens50htp6KJ_Ot-39" edge="1">
          <mxGeometry relative="1" as="geometry" />
        </mxCell>
        <mxCell id="S0g9-Dens50htp6KJ_Ot-50" style="edgeStyle=orthogonalEdgeStyle;rounded=0;orthogonalLoop=1;jettySize=auto;html=1;exitX=0.5;exitY=1;exitDx=0;exitDy=0;" parent="1" source="S0g9-Dens50htp6KJ_Ot-5" edge="1">
          <mxGeometry relative="1" as="geometry">
            <mxPoint x="820" y="450" as="targetPoint" />
          </mxGeometry>
        </mxCell>
        <mxCell id="S0g9-Dens50htp6KJ_Ot-5" value="craftcms/nginx:8.0" style="shape=image;html=1;verticalAlign=top;verticalLabelPosition=bottom;labelBackgroundColor=#ffffff;imageAspect=0;aspect=fixed;image=https://cdn3.iconfinder.com/data/icons/social-media-2169/24/social_media_social_media_logo_docker-128.png" parent="1" vertex="1">
          <mxGeometry x="839" y="180" width="90" height="90" as="geometry" />
        </mxCell>
        <mxCell id="S0g9-Dens50htp6KJ_Ot-7" value="RDS Datenbank" style="outlineConnect=0;dashed=0;verticalLabelPosition=bottom;verticalAlign=top;align=center;html=1;shape=mxgraph.aws3.rds;fillColor=#2E73B8;gradientColor=none;" parent="1" vertex="1">
          <mxGeometry x="142.64" y="670" width="72" height="81" as="geometry" />
        </mxCell>
        <mxCell id="S0g9-Dens50htp6KJ_Ot-41" style="edgeStyle=orthogonalEdgeStyle;rounded=0;orthogonalLoop=1;jettySize=auto;html=1;exitX=0.5;exitY=1;exitDx=0;exitDy=0;" parent="1" source="S0g9-Dens50htp6KJ_Ot-8" target="S0g9-Dens50htp6KJ_Ot-39" edge="1">
          <mxGeometry relative="1" as="geometry" />
        </mxCell>
        <mxCell id="S0g9-Dens50htp6KJ_Ot-49" style="edgeStyle=orthogonalEdgeStyle;rounded=0;orthogonalLoop=1;jettySize=auto;html=1;exitX=0.5;exitY=1;exitDx=0;exitDy=0;" parent="1" source="S0g9-Dens50htp6KJ_Ot-8" edge="1">
          <mxGeometry relative="1" as="geometry">
            <mxPoint x="820" y="450" as="targetPoint" />
          </mxGeometry>
        </mxCell>
        <mxCell id="S0g9-Dens50htp6KJ_Ot-8" value="craftcms/nginx:8.0" style="shape=image;html=1;verticalAlign=top;verticalLabelPosition=bottom;labelBackgroundColor=#ffffff;imageAspect=0;aspect=fixed;image=https://cdn3.iconfinder.com/data/icons/social-media-2169/24/social_media_social_media_logo_docker-128.png" parent="1" vertex="1">
          <mxGeometry x="740" y="180" width="90" height="90" as="geometry" />
        </mxCell>
        <mxCell id="S0g9-Dens50htp6KJ_Ot-40" style="edgeStyle=orthogonalEdgeStyle;rounded=0;orthogonalLoop=1;jettySize=auto;html=1;exitX=0.5;exitY=1;exitDx=0;exitDy=0;entryX=0.5;entryY=0;entryDx=0;entryDy=0;entryPerimeter=0;" parent="1" source="S0g9-Dens50htp6KJ_Ot-9" target="S0g9-Dens50htp6KJ_Ot-39" edge="1">
          <mxGeometry relative="1" as="geometry" />
        </mxCell>
        <mxCell id="S0g9-Dens50htp6KJ_Ot-48" style="edgeStyle=orthogonalEdgeStyle;rounded=0;orthogonalLoop=1;jettySize=auto;html=1;exitX=0.5;exitY=1;exitDx=0;exitDy=0;entryX=0.5;entryY=0;entryDx=0;entryDy=0;entryPerimeter=0;" parent="1" source="S0g9-Dens50htp6KJ_Ot-9" target="S0g9-Dens50htp6KJ_Ot-44" edge="1">
          <mxGeometry relative="1" as="geometry" />
        </mxCell>
        <mxCell id="S0g9-Dens50htp6KJ_Ot-9" value="craftcms/nginx:8.0" style="shape=image;html=1;verticalAlign=top;verticalLabelPosition=bottom;labelBackgroundColor=#ffffff;imageAspect=0;aspect=fixed;image=https://cdn3.iconfinder.com/data/icons/social-media-2169/24/social_media_social_media_logo_docker-128.png" parent="1" vertex="1">
          <mxGeometry x="640" y="180" width="90" height="90" as="geometry" />
        </mxCell>
        <mxCell id="S0g9-Dens50htp6KJ_Ot-26" style="edgeStyle=orthogonalEdgeStyle;rounded=0;orthogonalLoop=1;jettySize=auto;html=1;exitX=0.5;exitY=1;exitDx=0;exitDy=0;exitPerimeter=0;entryX=0.5;entryY=0;entryDx=0;entryDy=0;" parent="1" source="S0g9-Dens50htp6KJ_Ot-12" target="S0g9-Dens50htp6KJ_Ot-4" edge="1">
          <mxGeometry relative="1" as="geometry" />
        </mxCell>
        <mxCell id="S0g9-Dens50htp6KJ_Ot-29" style="edgeStyle=orthogonalEdgeStyle;rounded=0;orthogonalLoop=1;jettySize=auto;html=1;exitX=0.5;exitY=1;exitDx=0;exitDy=0;exitPerimeter=0;entryX=0.5;entryY=0;entryDx=0;entryDy=0;" parent="1" source="S0g9-Dens50htp6KJ_Ot-12" target="S0g9-Dens50htp6KJ_Ot-27" edge="1">
          <mxGeometry relative="1" as="geometry" />
        </mxCell>
        <mxCell id="S0g9-Dens50htp6KJ_Ot-30" style="edgeStyle=orthogonalEdgeStyle;rounded=0;orthogonalLoop=1;jettySize=auto;html=1;exitX=0.5;exitY=1;exitDx=0;exitDy=0;exitPerimeter=0;entryX=0.5;entryY=0;entryDx=0;entryDy=0;" parent="1" source="S0g9-Dens50htp6KJ_Ot-12" target="S0g9-Dens50htp6KJ_Ot-28" edge="1">
          <mxGeometry relative="1" as="geometry" />
        </mxCell>
        <mxCell id="S0g9-Dens50htp6KJ_Ot-12" value="PHP Balancer" style="outlineConnect=0;dashed=0;verticalLabelPosition=middle;verticalAlign=middle;align=left;html=1;shape=mxgraph.aws3.classic_load_balancer;fillColor=#F58536;gradientColor=none;labelPosition=right;" parent="1" vertex="1">
          <mxGeometry x="129.5" y="340" width="69" height="72" as="geometry" />
        </mxCell>
        <mxCell id="S0g9-Dens50htp6KJ_Ot-31" style="edgeStyle=orthogonalEdgeStyle;rounded=0;orthogonalLoop=1;jettySize=auto;html=1;exitX=0.5;exitY=1;exitDx=0;exitDy=0;entryX=0.5;entryY=0;entryDx=0;entryDy=0;entryPerimeter=0;" parent="1" source="S0g9-Dens50htp6KJ_Ot-15" target="S0g9-Dens50htp6KJ_Ot-12" edge="1">
          <mxGeometry relative="1" as="geometry" />
        </mxCell>
        <mxCell id="S0g9-Dens50htp6KJ_Ot-15" value="NGINX" style="shape=image;html=1;verticalAlign=top;verticalLabelPosition=bottom;labelBackgroundColor=#ffffff;imageAspect=0;aspect=fixed;image=https://cdn3.iconfinder.com/data/icons/social-media-2169/24/social_media_social_media_logo_docker-128.png" parent="1" vertex="1">
          <mxGeometry x="20" y="182" width="90" height="90" as="geometry" />
        </mxCell>
        <mxCell id="S0g9-Dens50htp6KJ_Ot-33" style="edgeStyle=orthogonalEdgeStyle;rounded=0;orthogonalLoop=1;jettySize=auto;html=1;exitX=0.5;exitY=1;exitDx=0;exitDy=0;entryX=0.5;entryY=0;entryDx=0;entryDy=0;entryPerimeter=0;" parent="1" source="S0g9-Dens50htp6KJ_Ot-16" target="S0g9-Dens50htp6KJ_Ot-12" edge="1">
          <mxGeometry relative="1" as="geometry" />
        </mxCell>
        <mxCell id="S0g9-Dens50htp6KJ_Ot-16" value="NGINX" style="shape=image;html=1;verticalAlign=top;verticalLabelPosition=bottom;labelBackgroundColor=#ffffff;imageAspect=0;aspect=fixed;image=https://cdn3.iconfinder.com/data/icons/social-media-2169/24/social_media_social_media_logo_docker-128.png" parent="1" vertex="1">
          <mxGeometry x="191" y="180" width="90" height="90" as="geometry" />
        </mxCell>
        <mxCell id="S0g9-Dens50htp6KJ_Ot-35" style="edgeStyle=orthogonalEdgeStyle;rounded=0;orthogonalLoop=1;jettySize=auto;html=1;exitX=0.5;exitY=1;exitDx=0;exitDy=0;entryX=0.5;entryY=0;entryDx=0;entryDy=0;entryPerimeter=0;" parent="1" source="S0g9-Dens50htp6KJ_Ot-27" target="S0g9-Dens50htp6KJ_Ot-7" edge="1">
          <mxGeometry relative="1" as="geometry" />
        </mxCell>
        <mxCell id="S0g9-Dens50htp6KJ_Ot-52" style="edgeStyle=orthogonalEdgeStyle;rounded=0;orthogonalLoop=1;jettySize=auto;html=1;exitX=0.5;exitY=1;exitDx=0;exitDy=0;" parent="1" source="S0g9-Dens50htp6KJ_Ot-27" target="S0g9-Dens50htp6KJ_Ot-43" edge="1">
          <mxGeometry relative="1" as="geometry" />
        </mxCell>
        <mxCell id="S0g9-Dens50htp6KJ_Ot-27" value="craftcms/php-fpm:8.0" style="shape=image;html=1;verticalAlign=top;verticalLabelPosition=bottom;labelBackgroundColor=#ffffff;imageAspect=0;aspect=fixed;image=https://cdn3.iconfinder.com/data/icons/social-media-2169/24/social_media_social_media_logo_docker-128.png" parent="1" vertex="1">
          <mxGeometry x="180" y="460" width="90" height="90" as="geometry" />
        </mxCell>
        <mxCell id="S0g9-Dens50htp6KJ_Ot-36" style="edgeStyle=orthogonalEdgeStyle;rounded=0;orthogonalLoop=1;jettySize=auto;html=1;exitX=0.5;exitY=1;exitDx=0;exitDy=0;entryX=0.5;entryY=0;entryDx=0;entryDy=0;entryPerimeter=0;" parent="1" source="S0g9-Dens50htp6KJ_Ot-28" target="S0g9-Dens50htp6KJ_Ot-7" edge="1">
          <mxGeometry relative="1" as="geometry" />
        </mxCell>
        <mxCell id="S0g9-Dens50htp6KJ_Ot-53" style="edgeStyle=orthogonalEdgeStyle;rounded=0;orthogonalLoop=1;jettySize=auto;html=1;exitX=0.5;exitY=1;exitDx=0;exitDy=0;" parent="1" source="S0g9-Dens50htp6KJ_Ot-28" target="S0g9-Dens50htp6KJ_Ot-43" edge="1">
          <mxGeometry relative="1" as="geometry" />
        </mxCell>
        <mxCell id="S0g9-Dens50htp6KJ_Ot-28" value="craftcms/php-fpm:8.0" style="shape=image;html=1;verticalAlign=top;verticalLabelPosition=bottom;labelBackgroundColor=#ffffff;imageAspect=0;aspect=fixed;image=https://cdn3.iconfinder.com/data/icons/social-media-2169/24/social_media_social_media_logo_docker-128.png" parent="1" vertex="1">
          <mxGeometry x="302" y="460" width="90" height="90" as="geometry" />
        </mxCell>
        <mxCell id="S0g9-Dens50htp6KJ_Ot-37" value="PHP and NGINX are in different container" style="text;html=1;align=center;verticalAlign=middle;resizable=0;points=[];autosize=1;strokeColor=none;" parent="1" vertex="1">
          <mxGeometry x="191" y="112" width="240" height="20" as="geometry" />
        </mxCell>
        <mxCell id="S0g9-Dens50htp6KJ_Ot-38" value="PHP and NGINX are in the same container" style="text;html=1;align=center;verticalAlign=middle;resizable=0;points=[];autosize=1;strokeColor=none;" parent="1" vertex="1">
          <mxGeometry x="540" y="122" width="240" height="20" as="geometry" />
        </mxCell>
        <mxCell id="S0g9-Dens50htp6KJ_Ot-39" value="RDS Datenbank" style="outlineConnect=0;dashed=0;verticalLabelPosition=bottom;verticalAlign=top;align=center;html=1;shape=mxgraph.aws3.rds;fillColor=#2E73B8;gradientColor=none;" parent="1" vertex="1">
          <mxGeometry x="690" y="454.5" width="72" height="81" as="geometry" />
        </mxCell>
        <mxCell id="S0g9-Dens50htp6KJ_Ot-43" value="Redis Cache" style="outlineConnect=0;dashed=0;verticalLabelPosition=bottom;verticalAlign=top;align=center;html=1;shape=mxgraph.aws3.redis;fillColor=#2E73B8;gradientColor=none;" parent="1" vertex="1">
          <mxGeometry x="243.64" y="665.5" width="85.71" height="90" as="geometry" />
        </mxCell>
        <mxCell id="S0g9-Dens50htp6KJ_Ot-44" value="Redis Cache" style="outlineConnect=0;dashed=0;verticalLabelPosition=bottom;verticalAlign=top;align=center;html=1;shape=mxgraph.aws3.redis;fillColor=#2E73B8;gradientColor=none;" parent="1" vertex="1">
          <mxGeometry x="780" y="454.5" width="85.71" height="90" as="geometry" />
        </mxCell>
        <mxCell id="S0g9-Dens50htp6KJ_Ot-56" value="&lt;table style=&quot;box-sizing: border-box; border-spacing: 0px; border-collapse: collapse; margin-top: 0px; margin-bottom: 16px; display: block; max-width: 100%; overflow: auto; color: rgb(36, 41, 46); font-size: 16px; font-style: normal; font-weight: 400; letter-spacing: normal; text-transform: none; word-spacing: 0px; background-color: rgb(255, 255, 255);&quot;&gt;&lt;tbody style=&quot;box-sizing: border-box&quot;&gt;&lt;tr style=&quot;box-sizing: border-box ; border-top: 1px solid&quot;&gt;&lt;td style=&quot;box-sizing: border-box ; padding: 6px 13px ; border: 1px solid&quot;&gt;&lt;code style=&quot;box-sizing: border-box ; font-family: , , &amp;quot;sf mono&amp;quot; , &amp;quot;consolas&amp;quot; , &amp;quot;liberation mono&amp;quot; , &amp;quot;menlo&amp;quot; , monospace ; font-size: 13.6px ; padding: 0.2em 0.4em ; margin: 0px ; border-radius: 6px&quot;&gt;craftcms/php-fpm:8.0&lt;/code&gt;&lt;/td&gt;&lt;/tr&gt;&lt;/tbody&gt;&lt;/table&gt;&lt;br class=&quot;Apple-interchange-newline&quot;&gt;" style="text;whiteSpace=wrap;html=1;" parent="1" vertex="1">
          <mxGeometry x="63.639999999999986" y="10" width="230" height="70" as="geometry" />
        </mxCell>
        <mxCell id="S0g9-Dens50htp6KJ_Ot-57" value="&lt;table style=&quot;box-sizing: border-box ; border-spacing: 0px ; border-collapse: collapse ; margin-top: 0px ; margin-bottom: 16px ; display: block ; max-width: 100% ; overflow: auto ; color: rgb(36 , 41 , 46) ; font-size: 16px ; font-style: normal ; font-weight: 400 ; letter-spacing: normal ; text-transform: none ; word-spacing: 0px ; background-color: rgb(255 , 255 , 255)&quot;&gt;&lt;tbody style=&quot;box-sizing: border-box&quot;&gt;&lt;tr style=&quot;box-sizing: border-box ; border-top: 1px solid&quot;&gt;&lt;td style=&quot;box-sizing: border-box ; padding: 6px 13px ; border: 1px solid&quot;&gt;&lt;code style=&quot;box-sizing: border-box ; font-family: , , &amp;#34;sf mono&amp;#34; , &amp;#34;consolas&amp;#34; , &amp;#34;liberation mono&amp;#34; , &amp;#34;menlo&amp;#34; , monospace ; font-size: 13.6px ; padding: 0.2em 0.4em ; margin: 0px ; border-radius: 6px&quot;&gt;craftcms/nginx:8.0&lt;/code&gt;&lt;/td&gt;&lt;/tr&gt;&lt;/tbody&gt;&lt;/table&gt;" style="text;whiteSpace=wrap;html=1;" parent="1" vertex="1">
          <mxGeometry x="699" y="10" width="230" height="70" as="geometry" />
        </mxCell>
      </root>
    </mxGraphModel>
  </diagram>
</mxfile>
